<?xml version="1.0" encoding="utf-8"?>
<!-- Generator: Adobe Illustrator 19.1.1, SVG Export Plug-In . SVG Version: 6.00 Build 0)  -->
<svg version="1.1" id="Calque_1" xmlns="http://www.w3.org/2000/svg" xmlns:xlink="http://www.w3.org/1999/xlink" x="0px" y="0px"
	 viewBox="0 0 960 560" style="enable-background:new 0 0 960 560;" xml:space="preserve">
<style type="text/css">
	.st0{fill:#FFFFFF;}
	.st1{fill:#262626;}
</style>
<g>
	<ellipse class="st0" cx="489.1" cy="270.9" rx="250.9" ry="244.1"/>
	<g id="XMLID_1_">
		<g>
			<path class="st1" d="M486.9,49.3c125.6,0,228.3,101.8,228.3,226.1S612.4,501.5,486.9,501.5S258.5,399.8,258.5,275.4
				S361.3,49.3,486.9,49.3z M623.9,365.9c0-45.2-91.4-70.1-137-70.1c-45.8,0-137.2,24.8-137.2,70.1c29.7,42.9,80.1,72.4,137.2,72.4
				S594.2,408.8,623.9,365.9z M555.3,185c0-38.5-29.7-67.9-68.4-67.9c-38.9,0-68.4,29.4-68.4,67.9s29.6,67.8,68.4,67.8
				C525.6,252.7,555.3,223.4,555.3,185z"/>
		</g>
		<g>
		</g>
	</g>
</g>
</svg>
